<svg width="41" height="41" viewBox="0 0 41 41" fill="none" xmlns="http://www.w3.org/2000/svg">
<g clip-path="url(#clip0_48_66)">
<path d="M20.3593 -0.0432129C9.10822 -0.0432129 -0.0432739 9.10828 -0.0432739 20.3593C-0.0432739 31.6104 9.10822 40.7619 20.3593 40.7619C31.6103 40.7619 40.7618 31.6104 40.7618 20.3593C40.7618 9.10828 31.6103 -0.0432129 20.3593 -0.0432129ZM20.3593 39.4029C9.85897 39.4029 1.31571 30.8596 1.31571 20.3593C1.31571 9.85903 9.85897 1.31577 20.3593 1.31577C30.8596 1.31577 39.4028 9.85903 39.4028 20.3593C39.4028 30.8596 30.8596 39.4029 20.3593 39.4029Z" fill="white"/>
<path d="M13.762 16.39C13.7357 16.39 13.7097 16.3952 13.6855 16.4053C13.6612 16.4153 13.6392 16.43 13.6206 16.4486C13.602 16.4672 13.5873 16.4892 13.5772 16.5135C13.5672 16.5378 13.562 16.5638 13.562 16.59V18.965C13.562 19.075 13.652 19.165 13.762 19.165H16.516C16.8841 19.165 17.2372 19.0188 17.4975 18.7585C17.7578 18.4982 17.904 18.1452 17.904 17.777C17.904 17.4089 17.7578 17.0559 17.4975 16.7956C17.2372 16.5353 16.8841 16.389 16.516 16.389H13.762V16.39ZM13.762 20.945C13.7357 20.945 13.7097 20.9502 13.6855 20.9603C13.6612 20.9703 13.6392 20.985 13.6206 21.0036C13.602 21.0222 13.5873 21.0442 13.5772 21.0685C13.5672 21.0928 13.562 21.1188 13.562 21.145V24.019C13.562 24.129 13.652 24.219 13.762 24.219H16.694C17.1282 24.219 17.5445 24.0466 17.8515 23.7396C18.1585 23.4326 18.331 23.0162 18.331 22.582C18.331 22.1479 18.1585 21.7315 17.8515 21.4245C17.5445 21.1175 17.1282 20.945 16.694 20.945H13.762ZM25.137 21.087C25.1137 21.087 25.0913 21.0778 25.0748 21.0613C25.0583 21.0448 25.049 21.0224 25.049 20.999C25.049 20.025 25.838 19.236 26.811 19.236H27.201C28.174 19.236 28.963 20.026 28.963 20.999C28.963 21.047 28.923 21.087 28.875 21.087H25.137Z" fill="#F4F4F4"/>
<path fill-rule="evenodd" clip-rule="evenodd" d="M21.57 19.993C21.5061 19.9127 21.4394 19.8347 21.37 19.759C21.803 19.076 22.023 18.279 22.002 17.472C22.0201 16.777 21.881 16.0868 21.595 15.453C21.3161 14.8231 20.8704 14.2812 20.306 13.886L20.295 13.878C19.7627 13.5127 19.1592 13.2639 18.524 13.148C17.9139 13.0216 17.292 12.9613 16.669 12.968H11C10.6022 12.968 10.2206 13.1261 9.93934 13.4074C9.65804 13.6887 9.5 14.0702 9.5 14.468V26.425C9.5 26.8229 9.65804 27.2044 9.93934 27.4857C10.2206 27.767 10.6022 27.925 11 27.925H16.8C17.458 27.925 18.112 27.842 18.748 27.677C19.4015 27.5081 20.0207 27.2269 20.578 26.846L20.585 26.841C21.141 26.456 21.6026 25.95 21.935 25.361C22.1548 25.7827 22.4262 26.1754 22.743 26.53C23.281 27.11 23.943 27.56 24.679 27.852L24.697 27.859C25.4528 28.1459 26.2557 28.2884 27.064 28.279C28.227 28.3086 29.3739 28.002 30.367 27.396C31.4567 26.6558 32.2439 25.5485 32.585 24.276C32.6496 24.0336 32.6523 23.7788 32.593 23.535C32.705 23.342 32.776 23.122 32.793 22.886C32.8495 22.0937 32.7817 21.2974 32.592 20.526L32.59 20.52C32.3963 19.7464 32.0577 19.0165 31.592 18.369L31.577 18.347C31.077 17.6774 30.4301 17.1314 29.686 16.751C28.8868 16.3585 28.0063 16.1598 27.116 16.171C26.3024 16.1674 25.4962 16.3251 24.744 16.635L24.734 16.639C24.0267 16.9365 23.3856 17.3716 22.848 17.919L22.836 17.93C22.2963 18.492 21.8783 19.1592 21.608 19.89L21.607 19.892C21.5944 19.9256 21.582 19.9593 21.57 19.993ZM18.828 19.923C19.5017 20.0858 20.0932 20.4882 20.492 21.055C20.8627 21.6181 21.0519 22.2812 21.034 22.955C21.0505 23.4996 20.9295 24.0396 20.682 24.525C20.459 24.958 20.132 25.33 19.732 25.608C19.3175 25.891 18.857 26.0998 18.371 26.225C17.8582 26.3579 17.3307 26.4251 16.801 26.425H11V14.468H16.678C17.202 14.4616 17.7251 14.5126 18.238 14.62C18.671 14.697 19.083 14.866 19.446 15.115C19.788 15.355 20.058 15.683 20.226 16.065C20.426 16.506 20.52 16.988 20.501 17.472C20.5223 18.0028 20.3795 18.5273 20.092 18.974C19.78 19.394 19.312 19.721 18.828 19.923ZM25.002 22.993C24.9987 22.9217 24.9987 22.8503 25.002 22.779H31.297C31.3432 22.1428 31.2885 21.5032 31.135 20.884C30.9876 20.2942 30.7298 19.7377 30.375 19.244C30.017 18.7649 29.5551 18.3731 29.024 18.098C28.4327 17.8073 27.7808 17.661 27.122 17.671C26.5027 17.6664 25.8887 17.7854 25.316 18.021C24.791 18.242 24.316 18.564 23.918 18.969C23.5208 19.3821 23.2131 19.8727 23.014 20.41C22.8011 20.9895 22.695 21.6027 22.701 22.22C22.691 22.846 22.794 23.469 23.005 24.059C23.185 24.593 23.469 25.086 23.842 25.509C24.228 25.924 24.702 26.248 25.23 26.456C25.8189 26.6799 26.4451 26.7895 27.075 26.779C27.9584 26.8064 28.8306 26.5756 29.585 26.115C30.3457 25.5763 30.894 24.7885 31.135 23.888H29.033C28.9206 24.186 28.7137 24.4388 28.444 24.608C28.0781 24.8498 27.6463 24.9724 27.208 24.959C26.9178 24.9891 26.6245 24.9592 26.3463 24.8711C26.0681 24.783 25.811 24.6387 25.591 24.447C25.2338 24.0442 25.0255 23.5309 25.001 22.993H25.002Z" fill="#F4F4F4"/>
<path d="M29.447 14.396C29.446 14.2906 29.4033 14.1899 29.3284 14.1157C29.2535 14.0416 29.1524 14 29.047 14H25.022C24.9159 14 24.8142 14.0421 24.7392 14.1172C24.6642 14.1922 24.622 14.2939 24.622 14.4V15.47C24.622 15.5225 24.6324 15.5745 24.6525 15.6231C24.6726 15.6716 24.702 15.7157 24.7392 15.7528C24.7763 15.79 24.8204 15.8195 24.8689 15.8396C24.9175 15.8597 24.9695 15.87 25.022 15.87H29.058C29.1109 15.87 29.1632 15.8595 29.212 15.8392C29.2608 15.8188 29.3051 15.789 29.3423 15.7514C29.3795 15.7139 29.4089 15.6693 29.4287 15.6203C29.4486 15.5713 29.4585 15.5189 29.458 15.466L29.447 14.396Z" fill="#F4F4F4"/>
</g>
<defs>
<clipPath id="clip0_48_66">
<rect width="40.7186" height="40.7186" fill="white"/>
</clipPath>
</defs>
</svg>
