<svg width="93" height="83" viewBox="0 0 93 83" fill="none" xmlns="http://www.w3.org/2000/svg">
<path d="M79.4987 6.52903L84.099 6.52609C84.6337 6.52609 85.0665 6.09367 85.0665 5.55904L85.0636 0.963606C85.0636 0.432419 84.6307 0 84.096 0H79.4952C78.9635 0 78.5277 0.432419 78.5277 0.966555L78.5306 5.56248C78.5306 6.09662 78.964 6.52903 79.4987 6.52903Z" fill="white"/>
<path d="M93 21.0294C93 20.7144 92.7432 20.4614 92.4279 20.4614H90.3472C90.0314 20.4614 89.7751 20.7174 89.778 21.0324V23.1114C89.778 23.4264 90.0314 23.6795 90.3472 23.6795H92.4309C92.7432 23.6795 93 23.4234 93 23.1114V21.0294Z" fill="white"/>
<path d="M77.201 19.7515H75.0244C74.7366 19.7515 74.5015 19.9864 74.5015 20.2734V22.4512C74.5015 22.7382 74.7366 22.9701 75.0244 22.9701H77.201C77.4918 22.9701 77.7239 22.7352 77.7239 22.4478V20.2734C77.7239 19.9864 77.4888 19.7515 77.201 19.7515Z" fill="white"/>
<path d="M69.5829 11.2153L75.5409 11.2119C76.3294 11.2119 76.9689 10.5755 76.9689 9.78835L76.9659 3.83669C76.9659 3.04949 76.3259 2.4102 75.5374 2.4102L69.58 2.41315C68.7914 2.41315 68.1549 3.05244 68.1549 3.84013V9.79179C68.1579 10.576 68.7949 11.2153 69.5829 11.2153Z" fill="white"/>
<path d="M86.9373 15.6132H82.3399C81.8052 15.6161 81.3689 16.0486 81.3689 16.5832L81.3723 21.1757C81.3723 21.7098 81.8052 22.1422 82.3399 22.1422H86.9402C87.4749 22.1422 87.9083 21.7098 87.9083 21.1757V16.5797C87.9048 16.0456 87.4725 15.6132 86.9373 15.6132Z" fill="white"/>
<path d="M78.6944 12.7992H74.9535C74.5855 12.7992 74.2884 13.096 74.2884 13.4601L74.2919 17.1976C74.2919 17.5646 74.5885 17.8614 74.9535 17.8614L78.6944 17.858C79.0623 17.858 79.359 17.5617 79.359 17.1976L79.356 13.4601C79.356 13.096 79.0594 12.7992 78.6944 12.7992Z" fill="white"/>
<path d="M87.3731 11.0807H90.4308C90.9655 11.0807 91.3983 10.6453 91.3983 10.1112V7.05921C91.3983 6.52507 90.9625 6.08971 90.4278 6.08971L87.3731 6.09265C86.8384 6.09265 86.4055 6.52507 86.4055 7.05921V10.1142C86.4055 10.6483 86.8384 11.0807 87.3731 11.0807Z" fill="white"/>
<path d="M83.4094 10.7471L83.4064 8.55405C83.4064 8.27003 83.1777 8.04105 82.8934 8.04105H80.698C80.4166 8.04105 80.1844 8.27003 80.1844 8.55405L80.1874 10.7471C80.1874 11.0311 80.4166 11.2596 80.7009 11.2596H82.8963C83.1777 11.2596 83.4094 11.0311 83.4094 10.7471Z" fill="white"/>
<path d="M71.0424 12.9343L61.9987 12.9377C61.2107 12.9377 60.5736 13.574 60.5736 14.3612L60.5771 23.3949C60.5771 24.1826 61.2171 24.8184 62.0051 24.8184L71.0458 24.8155C71.8343 24.8155 72.4738 24.1791 72.4709 23.3914V14.3578C72.4709 13.5701 71.8309 12.9343 71.0429 12.9343H71.0424Z" fill="white"/>
<path d="M44.1441 22.4807C38.2884 22.4807 33.5455 27.2216 33.5455 33.0711C33.5455 38.9205 38.2879 43.6585 44.1441 43.6585C50.0002 43.6585 54.7427 38.9176 54.7427 33.0711C54.7427 27.2246 49.9968 22.4807 44.1441 22.4807Z" fill="white"/>
<path d="M71.2062 26.858H71.1108C71.0208 26.858 70.9376 26.858 70.8481 26.8643C70.73 26.858 70.613 26.8643 70.4959 26.8702V26.8643L63.3628 26.8702C63.5423 27.4201 63.6938 27.9852 63.8237 28.5567C64.1483 30.0082 64.321 31.5217 64.321 33.0754C64.321 33.2671 64.321 33.4676 64.3151 33.6592C64.2871 34.7589 65.4622 35.4813 66.4264 34.9535C67.8455 34.1752 69.4722 33.7275 71.2003 33.7275H71.2062C76.7903 33.7275 81.3193 38.3573 81.1555 43.9783C80.9887 49.3835 76.4037 53.6144 70.9932 53.6144H70.9312C70.9096 53.6144 70.8815 53.605 70.8604 53.605C65.87 53.605 61.8079 49.556 61.8079 44.5685C61.8079 42.6688 60.2712 41.1307 58.3729 41.1307C56.4746 41.1307 54.9286 42.6688 54.9286 44.5685C54.9286 47.9256 55.9763 51.042 57.7575 53.6144H43.7609C39.6298 53.6144 35.7871 52.3884 32.5592 50.2911C30.3673 48.8676 28.469 47.0298 26.9598 44.8982C25.1206 42.3041 23.8746 39.2713 23.4073 35.9972C23.2681 35.0429 23.2002 34.0671 23.2002 33.0754C23.2002 31.4047 23.3921 29.7866 23.7723 28.2387C25.9613 19.2356 34.0925 12.5306 43.7604 12.5306C49.4556 12.5306 54.6123 14.8559 58.335 18.6027V14.3468C58.335 13.4171 58.7 12.537 59.3616 11.885C59.6459 11.6009 59.9618 11.3754 60.314 11.2088C55.7132 7.72194 49.978 5.65862 43.7609 5.65862C30.7475 5.65862 19.8489 14.7109 17.0234 26.8584C7.75735 26.8865 0.253338 34.4037 0.253338 43.6663C0.253338 52.9289 7.37071 60.0726 16.315 60.4711C16.5713 60.477 16.8251 60.4834 17.0878 60.4834H70.9312C80.1574 60.4834 87.8833 53.179 88.0353 43.9567C88.1927 34.5339 80.5962 26.8584 71.2067 26.8584L71.2062 26.858ZM18.9521 53.4345C18.0588 53.604 17.1129 53.6537 16.1512 53.5706C11.4053 53.1318 7.5842 49.2931 7.17297 44.5458C6.74599 39.6291 9.93993 35.3574 14.3799 34.1069C15.344 33.8322 16.3367 34.4838 16.4203 35.4749C16.8379 40.2497 18.4764 44.6726 21.024 48.4342C22.3409 50.3643 21.2528 52.9991 18.9521 53.435V53.4345Z" fill="white"/>
<path d="M13.2849 75.6096C13.2849 76.2213 13.2047 76.8051 13.0468 77.3702C12.8894 77.9323 12.6665 78.4606 12.3788 78.9515C12.0915 79.4458 11.7452 79.8935 11.3404 80.2984C10.935 80.7057 10.4874 81.0516 9.99551 81.3421C9.50705 81.629 8.97825 81.8546 8.41256 82.0123C7.84342 82.1695 7.25609 82.2501 6.64711 82.2501C6.03813 82.2501 5.45031 82.17 4.88757 82.0123C4.32237 81.8546 3.79308 81.629 3.29871 81.3421C2.80976 81.0516 2.35868 80.7057 1.95385 80.2984C1.54852 79.8935 1.19926 79.4458 0.90904 78.9515C0.618324 78.4606 0.395491 77.9323 0.238082 77.3702C0.0806724 76.8051 0 76.2213 0 75.6096C0 74.9978 0.0806724 74.4145 0.238082 73.846C0.395491 73.2809 0.618324 72.7526 0.90904 72.2617C1.19926 71.7738 1.54852 71.3291 1.95385 70.9247C2.35868 70.5168 2.80976 70.1709 3.29871 69.8839C3.79308 69.5965 4.32188 69.3739 4.88757 69.2166C5.45031 69.0594 6.03764 68.9818 6.64711 68.9818C7.25658 68.9818 7.84342 69.0589 8.41256 69.2166C8.97825 69.3739 9.50705 69.5965 9.99551 69.8839C10.4874 70.1709 10.935 70.5173 11.3404 70.9247C11.7457 71.3291 12.0915 71.7738 12.3788 72.2617C12.6665 72.7526 12.8894 73.2809 13.0468 73.846C13.2042 74.4145 13.2849 75.0012 13.2849 75.6096ZM10.7314 75.6096C10.7314 75.0509 10.6227 74.5197 10.4067 74.0224C10.1933 73.5246 9.90303 73.0927 9.53508 72.7251C9.16714 72.3581 8.73426 72.0677 8.23645 71.8544C7.73865 71.6382 7.2069 71.5301 6.64711 71.5301C6.08732 71.5301 5.54918 71.6382 5.05137 71.8544C4.55701 72.0677 4.12364 72.3581 3.75274 72.7251C3.3848 73.0927 3.09113 73.5251 2.87469 74.0224C2.65825 74.5197 2.55299 75.0509 2.55299 75.6096C2.55299 76.1683 2.65825 76.697 2.87469 77.1879C3.09113 77.6822 3.3848 78.1112 3.75274 78.4822C4.12364 78.8527 4.55701 79.1461 5.05137 79.3593C5.54918 79.5755 6.08093 79.6807 6.64711 79.6807C7.21329 79.6807 7.73865 79.5755 8.23645 79.3593C8.73426 79.1461 9.16714 78.8527 9.53508 78.4822C9.90303 78.1117 10.1933 77.6822 10.4067 77.1879C10.6232 76.697 10.7314 76.1717 10.7314 75.6096ZM17.1527 76.496V81.972H14.707V72.3885H15.3007L16.1045 73.3182C16.5005 72.9634 16.9456 72.6848 17.4434 72.4937C17.9412 72.2991 18.4636 72.2033 19.0077 72.2033C19.5921 72.2033 20.1455 72.3143 20.662 72.5369C21.1844 72.7625 21.6389 73.0681 22.0255 73.4573C22.4146 73.8499 22.7181 74.3069 22.9439 74.8287C23.1697 75.3511 23.2809 75.9068 23.2809 76.4965V81.9725H20.8322V76.4965C20.8322 76.2464 20.7859 76.0086 20.69 75.786C20.597 75.5604 20.4642 75.3658 20.297 75.1993C20.1302 75.0327 19.9354 74.9029 19.7126 74.8071C19.4932 74.7113 19.2586 74.6622 19.0077 74.6622C18.7568 74.6622 18.5069 74.7118 18.2812 74.8071C18.0554 74.9029 17.8571 75.0327 17.6904 75.1993C17.5236 75.3658 17.3938 75.5604 17.2949 75.786C17.2019 76.0086 17.1522 76.2464 17.1522 76.4965L17.1527 76.496ZM33.4185 74.1054L28.8335 79.6276C28.9294 79.6586 29.0253 79.6772 29.1213 79.6861C29.2172 79.6954 29.3097 79.6984 29.4056 79.6984C29.6437 79.6984 29.8753 79.6674 30.0952 79.5996C30.3176 79.5347 30.5252 79.4424 30.7165 79.3185C30.9113 79.1981 31.0844 79.0468 31.236 78.8709C31.3904 78.695 31.5139 78.5004 31.6098 78.2842L33.3998 80.0846C33.1741 80.406 32.9119 80.6959 32.6177 80.9524C32.3211 81.2084 32.0023 81.428 31.6595 81.604C31.3161 81.7828 30.9546 81.9189 30.5743 82.0118C30.1941 82.1042 29.8045 82.1509 29.4056 82.1509C28.7317 82.1509 28.0976 82.0241 27.5009 81.774C26.9101 81.5239 26.3907 81.175 25.9455 80.7273C25.5003 80.2826 25.1481 79.748 24.8914 79.1303C24.6351 78.5156 24.5082 77.836 24.5082 77.095C24.5082 76.354 24.6351 75.6464 24.8914 75.0194C25.1481 74.3953 25.5008 73.8612 25.9455 73.4165C26.3907 72.9747 26.9101 72.6323 27.5009 72.388C28.0976 72.1438 28.7312 72.0234 29.4056 72.0234C29.8045 72.0234 30.1971 72.0696 30.5802 72.1654C30.9605 72.2613 31.322 72.3974 31.6659 72.5762C32.0092 72.7551 32.3304 72.9748 32.6305 73.2342C32.9301 73.4932 33.1928 73.7836 33.4185 74.1049V74.1054ZM27.2382 78.3672L30.0859 74.5904C29.9742 74.5472 29.8631 74.5226 29.7519 74.5103C29.6402 74.4976 29.5261 74.4917 29.4056 74.4917C29.0716 74.4917 28.7568 74.5531 28.4596 74.6769C28.166 74.7973 27.9097 74.9703 27.6928 75.1988C27.4734 75.4243 27.3002 75.6995 27.1768 76.0174C27.0498 76.3388 26.9879 76.697 26.9879 77.0955C26.9879 77.1849 26.9908 77.2871 27.0002 77.4011C27.0095 77.5127 27.0253 77.6267 27.0464 77.7441C27.068 77.8616 27.0926 77.9731 27.1207 78.0807C27.1517 78.1888 27.1915 78.2847 27.2382 78.3677V78.3672ZM43.4947 72.987C43.4947 73.5212 43.3929 74.0185 43.1917 74.4853C42.9876 74.9545 42.7126 75.3653 42.3599 75.7142C42.0136 76.0631 41.6058 76.3383 41.139 76.5388C40.6751 76.7427 40.1773 76.8444 39.6456 76.8444H38.3528C38.1738 76.8444 38.0065 76.8754 37.8521 76.9432C37.6976 77.008 37.5614 77.0975 37.4438 77.2149C37.3292 77.3324 37.2367 77.468 37.1718 77.6228C37.1068 77.7771 37.0729 77.9441 37.0729 78.123V79.405H43.1455V81.9715H34.5042V78.123C34.5042 77.5918 34.606 77.0945 34.8072 76.6253C35.0113 76.1555 35.2863 75.7481 35.636 75.3992C35.9853 75.0504 36.3931 74.7781 36.8574 74.5776C37.3243 74.3767 37.8221 74.2779 38.3538 74.2779H39.6465C39.8256 74.2779 39.9928 74.2435 40.1473 74.1791C40.3018 74.1143 40.438 74.0219 40.5556 73.9074C40.6702 73.79 40.7597 73.6509 40.8242 73.4932C40.8925 73.3359 40.9235 73.1688 40.9235 72.9865C40.9235 72.8042 40.8925 72.6406 40.8242 72.4863C40.7597 72.332 40.6697 72.1959 40.5556 72.0785C40.438 71.964 40.3023 71.8745 40.1473 71.8067C39.9924 71.7424 39.8256 71.7109 39.6465 71.7109H35.0615V69.1415H39.6465C40.1783 69.1415 40.6761 69.2432 41.14 69.4441C41.6068 69.6481 42.0151 69.9228 42.3609 70.2751C42.7131 70.621 42.9885 71.0284 43.1927 71.4952C43.3939 71.9586 43.4957 72.4558 43.4957 72.987H43.4947ZM54.2699 78.4198L55.6305 80.6556C55.0333 81.1686 54.3658 81.5637 53.624 81.8388C52.8852 82.1106 52.1183 82.2496 51.3268 82.2496C50.7144 82.2496 50.1305 82.1695 49.5648 82.0118C49.0021 81.8541 48.4733 81.6285 47.9784 81.3416C47.487 81.0512 47.0354 80.7052 46.6306 80.2979C46.2253 79.893 45.876 79.4453 45.5858 78.951C45.298 78.4601 45.0723 77.9318 44.9148 77.3697C44.7574 76.8046 44.6768 76.2208 44.6768 75.6091C44.6768 74.9973 44.7569 74.414 44.9148 73.8455C45.0723 73.2804 45.298 72.7522 45.5858 72.2613C45.876 71.7669 46.2253 71.3193 46.6306 70.9114C47.0354 70.507 47.487 70.1611 47.9784 69.8707C48.4733 69.5808 49.0021 69.3582 49.5648 69.2009C50.1305 69.0402 50.7144 68.9631 51.3268 68.9631C52.1183 68.9631 52.8852 69.0992 53.624 69.3709C54.3663 69.6427 55.0338 70.0382 55.6305 70.5571L54.2699 72.79C53.896 72.3851 53.4504 72.0765 52.9344 71.8573C52.4208 71.6411 51.8866 71.5301 51.3268 71.5301C50.767 71.5301 50.2264 71.6382 49.7281 71.8544C49.2338 72.0677 48.8004 72.3581 48.4329 72.7251C48.0621 73.0927 47.7684 73.5251 47.5515 74.0224C47.338 74.5197 47.2298 75.0509 47.2298 75.6096C47.2298 76.1683 47.338 76.697 47.5515 77.1879C47.7684 77.6822 48.0621 78.1112 48.4329 78.4822C48.8004 78.8527 49.2338 79.1461 49.7281 79.3593C50.2264 79.5755 50.7577 79.6807 51.3268 79.6807C51.896 79.6807 52.4213 79.5726 52.9344 79.3564C53.4509 79.1367 53.896 78.8252 54.2699 78.4208V78.4198ZM59.3218 68.5798V81.9715H56.8573V68.5798H59.3218ZM70.455 77.095C70.455 77.8115 70.3252 78.4788 70.0718 79.0964C69.8156 79.7146 69.4629 80.2482 69.0236 80.6964C68.5814 81.1475 68.0619 81.5027 67.4682 81.7622C66.8745 82.0212 66.2379 82.1514 65.5576 82.1514C64.8773 82.1514 64.2467 82.0212 63.653 81.7622C63.0592 81.5027 62.5368 81.1475 62.0917 80.6964C61.6495 80.2487 61.3002 79.7146 61.0405 79.0964C60.7842 78.4788 60.6543 77.8115 60.6543 77.095C60.6543 76.3786 60.7842 75.6955 61.0405 75.0754C61.3002 74.4514 61.6499 73.9172 62.0917 73.4661C62.5368 73.0155 63.0592 72.6632 63.653 72.4072C64.2467 72.1507 64.8803 72.0239 65.5576 72.0239C66.235 72.0239 66.875 72.1448 67.4682 72.3851C68.0619 72.6259 68.5814 72.9689 69.0236 73.4136C69.4629 73.8583 69.8151 74.3929 70.0718 75.0135C70.3252 75.6376 70.455 76.3324 70.455 77.0955V77.095ZM67.994 77.095C67.994 76.7029 67.9291 76.3447 67.7992 76.0263C67.6694 75.7083 67.4962 75.4332 67.2768 75.2017C67.054 74.9727 66.7972 74.7968 66.5006 74.6764C66.204 74.5526 65.8916 74.4912 65.5576 74.4912C65.2236 74.4912 64.9088 74.5526 64.6117 74.6764C64.3151 74.7968 64.0583 74.9727 63.8389 75.2017C63.6225 75.4332 63.4528 75.7083 63.3254 76.0263C63.2019 76.3447 63.1404 76.7029 63.1404 77.095C63.1404 77.4655 63.2024 77.8085 63.3254 78.1235C63.4523 78.4419 63.6225 78.7166 63.8389 78.948C64.0588 79.18 64.3151 79.3652 64.6117 79.4974C64.9088 79.6306 65.2212 79.6984 65.5576 79.6984C65.8941 79.6984 66.204 79.6369 66.5006 79.5102C66.7972 79.3863 67.054 79.2104 67.2768 78.9819C67.4962 78.7564 67.6694 78.4812 67.7992 78.1603C67.9291 77.839 67.994 77.4842 67.994 77.095ZM79.6655 81.9715L78.8553 80.8536C78.6605 81.0325 78.447 81.1996 78.2247 81.3602C78.0018 81.5175 77.7672 81.6536 77.5227 81.771C77.2753 81.885 77.0249 81.9779 76.7652 82.0487C76.506 82.1165 76.2428 82.1509 75.9737 82.1509C75.3834 82.1509 74.8266 82.0457 74.3071 81.8388C73.7877 81.6285 73.3337 81.3322 72.9406 80.946C72.5481 80.5598 72.2421 80.0939 72.0163 79.5436C71.794 78.9908 71.6823 78.3702 71.6823 77.6842V72.3875H74.1187V77.6842C74.1187 78.0085 74.1684 78.296 74.2639 78.549C74.3627 78.8021 74.496 79.0153 74.6657 79.1913C74.8325 79.3608 75.0273 79.494 75.2501 79.5834C75.4759 79.6733 75.7169 79.7166 75.9737 79.7166C76.2305 79.7166 76.4622 79.661 76.685 79.5436C76.9078 79.4261 77.1026 79.2718 77.2723 79.0807C77.4391 78.892 77.5724 78.6758 77.6654 78.4321C77.7608 78.1913 77.8075 77.9441 77.8075 77.6847V72.388H80.2533V81.9715H79.666H79.6655ZM91.3861 68.5798V81.9715H90.7958L89.8464 80.6556C89.6147 80.8659 89.3673 81.0605 89.1076 81.2428C88.8479 81.4246 88.5758 81.5823 88.2881 81.718C88.0003 81.8511 87.7066 81.9558 87.4066 82.0334C87.107 82.1106 86.7976 82.1509 86.4852 82.1509C85.8143 82.1509 85.1773 82.0241 84.584 81.771C83.9903 81.518 83.4708 81.1656 83.0257 80.7146C82.5805 80.264 82.2312 79.7293 81.9745 79.1146C81.7182 78.4969 81.5883 77.8237 81.5883 77.095C81.5883 76.3663 81.7182 75.7019 81.9745 75.0813C82.2312 74.4636 82.5805 73.9266 83.0257 73.472C83.4708 73.0185 83.9903 72.6627 84.584 72.4067C85.1777 72.1502 85.8143 72.0234 86.4852 72.0234C86.7017 72.0234 86.9245 72.0392 87.1527 72.076C87.3849 72.1099 87.6073 72.1684 87.8237 72.2519C88.0436 72.332 88.2507 72.4372 88.442 72.5698C88.6309 72.7001 88.7913 72.8603 88.9246 73.0519V68.5798H91.3856H91.3861ZM88.9251 77.095C88.9251 76.7614 88.8602 76.437 88.7332 76.125C88.6034 75.81 88.4302 75.5354 88.2074 75.2941C87.985 75.0499 87.7283 74.8553 87.4346 74.7103C87.138 74.5654 86.8222 74.4912 86.4857 74.4912C86.1493 74.4912 85.8399 74.5496 85.5427 74.67C85.2461 74.7904 84.9893 74.9604 84.7729 75.186C84.5535 75.4086 84.3833 75.6803 84.2598 76.0046C84.1329 76.326 84.068 76.6901 84.068 77.095C84.068 77.4468 84.1329 77.7805 84.2598 78.096C84.3833 78.4139 84.5535 78.692 84.7729 78.9298C84.9893 79.1706 85.2461 79.3593 85.5427 79.4949C85.8399 79.6311 86.1522 79.6989 86.4857 79.6989C86.8192 79.6989 87.138 79.6281 87.4346 79.4797C87.7283 79.3347 87.985 79.1402 88.2074 78.8989C88.4302 78.6581 88.6034 78.38 88.7332 78.068C88.8602 77.7525 88.9251 77.4287 88.9251 77.095Z" fill="white"/>
</svg>
