<svg width="29" height="29" viewBox="0 0 29 29" fill="none" xmlns="http://www.w3.org/2000/svg">
<circle cx="14.5" cy="14.5" r="14.5" fill="black"/>
<path d="M8.78484 14.697C8.33386 14.9336 8.35257 15.2801 8.82538 15.4672L10.2263 16.0215C10.6995 16.2094 11.4155 16.1068 11.8166 15.7938L17.9 10.9964C18.2999 10.6818 18.3428 10.7282 17.9955 11.1001L13.1863 16.2476C12.8378 16.6182 12.9407 17.0735 13.4155 17.2571L13.5796 17.321C14.0543 17.5046 14.8281 17.8129 15.2997 18.0047L16.8534 18.6373C17.3254 18.8291 17.8298 18.603 17.9639 18.1119L20.3318 9.40799C20.4655 8.91687 20.2059 8.70833 19.755 8.94454L8.78484 14.697Z" fill="white"/>
<path d="M12.6293 20.3953C12.6016 20.4783 13.5874 18.9679 13.5874 18.9679C13.8661 18.5422 13.7078 18.0343 13.237 17.8418L12.162 17.4017C11.6911 17.2092 11.4654 17.4352 11.6603 17.9057C11.6603 17.9057 12.6578 20.3099 12.6293 20.3953Z" fill="white"/>
</svg>
