<svg width="41" height="41" viewBox="0 0 41 41" fill="none" xmlns="http://www.w3.org/2000/svg">
<g clip-path="url(#clip0_10_88)">
<path d="M20.3593 -0.0432129C9.10822 -0.0432129 -0.0432739 9.10828 -0.0432739 20.3593C-0.0432739 31.6104 9.10822 40.7619 20.3593 40.7619C31.6103 40.7619 40.7618 31.6104 40.7618 20.3593C40.7618 9.10828 31.6103 -0.0432129 20.3593 -0.0432129ZM20.3593 39.4029C9.85897 39.4029 1.31571 30.8596 1.31571 20.3593C1.31571 9.85903 9.85897 1.31577 20.3593 1.31577C30.8596 1.31577 39.4028 9.85903 39.4028 20.3593C39.4028 30.8596 30.8596 39.4029 20.3593 39.4029Z" fill="white"/>
<path d="M27.3208 21.8322L23.8208 20.0822C23.7519 20.0479 23.6752 20.0323 23.5984 20.0371C23.5216 20.0419 23.4474 20.0669 23.3833 20.1095L21.5633 21.3236C20.5628 20.8438 19.7561 20.037 19.2763 19.0366L20.4903 17.2166C20.533 17.1525 20.5579 17.0783 20.5627 17.0015C20.5675 16.9247 20.552 16.848 20.5177 16.7791L18.7677 13.2791C18.7314 13.206 18.6754 13.1446 18.606 13.1017C18.5366 13.0587 18.4566 13.0361 18.375 13.0363C17.3307 13.0363 16.3292 13.4511 15.5908 14.1895C14.8524 14.9279 14.4375 15.9295 14.4375 16.9738C14.4401 19.4096 15.4089 21.745 17.1314 23.4674C18.8538 25.1898 21.1891 26.1586 23.625 26.1613C24.6693 26.1613 25.6708 25.7464 26.4093 25.008C27.1477 24.2696 27.5625 23.268 27.5625 22.2238C27.5626 22.1425 27.54 22.0628 27.4973 21.9936C27.4546 21.9245 27.3935 21.8686 27.3208 21.8322ZM23.625 25.2863C21.4211 25.2839 19.3081 24.4074 17.7498 22.849C16.1914 21.2906 15.3148 19.1777 15.3125 16.9738C15.3124 16.2073 15.5997 15.4686 16.1177 14.9036C16.6357 14.3386 17.3467 13.9884 18.1103 13.9222L19.6197 16.942L18.4166 18.7511C18.3765 18.8108 18.3517 18.8794 18.3445 18.951C18.3372 19.0225 18.3477 19.0947 18.375 19.1613C18.9563 20.5432 20.0556 21.6425 21.4375 22.2238C21.5041 22.2514 21.5765 22.2622 21.6482 22.2551C21.72 22.2481 21.7889 22.2234 21.8488 22.1833L23.6578 20.9802L26.6777 22.4895C26.6112 23.2532 26.2607 23.9641 25.6955 24.4819C25.1303 24.9997 24.3915 25.2867 23.625 25.2863ZM21 8.66126C19.0959 8.6609 17.2247 9.15765 15.5714 10.1024C13.9182 11.0471 12.5402 12.407 11.5738 14.0477C10.6074 15.6884 10.0861 17.5529 10.0614 19.4569C10.0367 21.3608 10.5095 23.2383 11.433 24.9034L10.1314 28.807C10.0543 29.0383 10.0431 29.2865 10.0991 29.5237C10.1551 29.761 10.2761 29.978 10.4484 30.1503C10.6208 30.3227 10.8378 30.4437 11.0751 30.4997C11.3123 30.5557 11.5605 30.5445 11.7917 30.4673L15.6953 29.1658C17.1555 29.9749 18.7816 30.439 20.4489 30.5225C22.1162 30.6061 23.7805 30.3069 25.3143 29.6479C26.8481 28.9888 28.2106 27.9874 29.2976 26.7204C30.3846 25.4534 31.1671 23.9544 31.5852 22.3382C32.0033 20.722 32.046 19.0316 31.7098 17.3964C31.3737 15.7612 30.6677 14.2246 29.6459 12.9044C28.6242 11.5843 27.3138 10.5155 25.8151 9.77999C24.3165 9.0445 22.6694 8.66181 21 8.66126ZM21 29.6613C19.2308 29.6618 17.4928 29.1959 15.9611 28.3105C15.8945 28.2722 15.8192 28.2518 15.7424 28.2514C15.6951 28.2514 15.6482 28.2591 15.6035 28.2744L11.515 29.6372C11.4379 29.6629 11.3552 29.6666 11.2761 29.648C11.197 29.6293 11.1247 29.589 11.0673 29.5315C11.0098 29.4741 10.9695 29.4017 10.9508 29.3227C10.9321 29.2436 10.9359 29.1608 10.9616 29.0838L12.3244 24.9953C12.3441 24.9365 12.351 24.8743 12.3448 24.8126C12.3386 24.751 12.3193 24.6913 12.2883 24.6377C11.1789 22.72 10.7334 20.4899 11.0208 18.2932C11.3082 16.0965 12.3126 14.0561 13.878 12.4885C15.4434 10.9209 17.4824 9.91367 19.6787 9.62315C21.875 9.33263 24.1057 9.77503 26.0249 10.8817C27.9441 11.9884 29.4444 13.6975 30.2931 15.7439C31.1418 17.7903 31.2914 20.0596 30.7188 22.1997C30.1462 24.3398 28.8833 26.2311 27.126 27.5803C25.3688 28.9294 23.2154 29.6609 21 29.6613Z" fill="white"/>
</g>
<defs>
<clipPath id="clip0_10_88">
<rect width="40.7186" height="40.7186" fill="white"/>
</clipPath>
</defs>
</svg>
