<svg width="41" height="41" viewBox="0 0 41 41" fill="none" xmlns="http://www.w3.org/2000/svg">
<g clip-path="url(#clip0_10_83)">
<path d="M24.8319 15.2085C23.9692 15.2085 23.3304 15.4261 22.8304 15.7009C22.7502 15.4159 22.4868 15.2072 22.1763 15.2696H18.3793C18.0039 15.2072 17.6998 15.5113 17.8156 15.9058V29.9028C17.6998 30.2591 18.0039 30.5645 18.3793 30.539H22.1763C22.5517 30.5645 22.8558 30.2591 22.8558 29.8837L22.8545 21.4244C22.8533 21.4206 22.8393 21.016 23.095 20.7373C23.2999 20.5159 23.6524 20.4026 24.1397 20.4026C24.9516 20.4026 25.3129 20.7347 25.4478 21.4779V29.8837C25.3142 30.2591 25.6183 30.5645 25.9937 30.539H29.9956C30.3709 30.5645 30.6751 30.2591 30.5402 29.8837V21.1954C30.6738 16.7774 27.527 15.2085 24.8319 15.2085ZM29.3148 29.2666H26.6732V21.4779C26.6732 19.9751 25.7023 19.0437 24.141 19.0437C23.2579 19.0437 22.5708 19.3032 22.0974 19.8148C21.4396 20.5273 21.4905 21.4308 21.6317 21.6318V29.2666H19.0588V16.5675H21.4968V16.995C21.4958 17.1224 21.5308 17.2474 21.5977 17.3558C21.6646 17.4642 21.7607 17.5515 21.875 17.6077C21.9893 17.664 22.1171 17.6868 22.2438 17.6736C22.3705 17.6604 22.4909 17.6118 22.5912 17.5333L22.7693 17.3958C23.2846 16.9899 23.8178 16.5687 24.8332 16.5687C25.8843 16.5687 29.3161 16.9034 29.3161 21.1967L29.3148 29.2666ZM13.997 8.86401C12.5693 8.86401 11.4088 10.0245 11.4088 11.4522C11.4088 12.8799 12.5693 14.0404 13.997 14.0404C15.4247 14.0404 16.5852 12.8799 16.5852 11.4522C16.5852 10.0245 15.4247 8.86401 13.997 8.86401ZM13.997 12.6814C13.32 12.6814 12.7678 12.1291 12.7678 11.4522C12.7678 10.7752 13.32 10.223 13.997 10.223C14.6739 10.223 15.2262 10.7752 15.2262 11.4522C15.2262 12.1291 14.6739 12.6814 13.997 12.6814ZM15.8141 15.2072H12.0374C11.662 15.2072 11.3579 15.5113 11.4521 15.9058V29.9028C11.3579 30.2591 11.662 30.5645 12.0374 30.539H15.8141C16.1894 30.5645 16.4935 30.2591 16.4935 29.8837V15.8867C16.4935 15.7065 16.422 15.5336 16.2945 15.4062C16.1671 15.2788 15.9943 15.2072 15.8141 15.2072ZM15.2694 29.2666H12.7169V16.5675H15.2694V29.2666Z" fill="white"/>
<path d="M20.3593 -0.0432129C9.10822 -0.0432129 -0.0432739 9.10828 -0.0432739 20.3593C-0.0432739 31.6104 9.10822 40.7619 20.3593 40.7619C31.6103 40.7619 40.7618 31.6104 40.7618 20.3593C40.7618 9.10828 31.6103 -0.0432129 20.3593 -0.0432129ZM20.3593 39.4029C9.85897 39.4029 1.31571 30.8596 1.31571 20.3593C1.31571 9.85903 9.85897 1.31577 20.3593 1.31577C30.8596 1.31577 39.4028 9.85903 39.4028 20.3593C39.4028 30.8596 30.8596 39.4029 20.3593 39.4029Z" fill="white"/>
</g>
<defs>
<clipPath id="clip0_10_83">
<rect width="40.7186" height="40.7186" fill="white"/>
</clipPath>
</defs>
</svg>
