<svg width="41" height="41" viewBox="0 0 41 41" fill="none" xmlns="http://www.w3.org/2000/svg">
<g clip-path="url(#clip0_10_98)">
<path d="M20.3593 -0.0432129C9.10822 -0.0432129 -0.0432739 9.10828 -0.0432739 20.3593C-0.0432739 31.6104 9.10822 40.7619 20.3593 40.7619C31.6103 40.7619 40.7618 31.6104 40.7618 20.3593C40.7618 9.10828 31.6103 -0.0432129 20.3593 -0.0432129ZM20.3593 39.4029C9.85897 39.4029 1.31571 30.8596 1.31571 20.3593C1.31571 9.85903 9.85897 1.31577 20.3593 1.31577C30.8596 1.31577 39.4028 9.85903 39.4028 20.3593C39.4028 30.8596 30.8596 39.4029 20.3593 39.4029Z" fill="white"/>
</g>
<path d="M28.945 11.3638C28.7294 11.1851 28.4694 11.068 28.1927 11.0251C27.9159 10.9821 27.6327 11.0149 27.373 11.1198L9.45602 18.3528C9.16649 18.4718 8.92 18.676 8.74926 18.9384C8.57852 19.2007 8.49161 19.5088 8.50008 19.8217C8.50854 20.1346 8.61197 20.4376 8.79664 20.6903C8.98131 20.9431 9.23848 21.1337 9.53402 21.2368L13.4 22.5788L15.495 29.5048C15.499 29.5188 15.512 29.5278 15.518 29.5408C15.5396 29.5961 15.5711 29.6469 15.611 29.6908C15.6716 29.7585 15.7499 29.808 15.837 29.8338C15.847 29.8378 15.854 29.8468 15.864 29.8488H15.87L15.873 29.8498C15.9504 29.8665 16.0308 29.8623 16.106 29.8378C16.114 29.8358 16.122 29.8358 16.131 29.8328C16.2033 29.8075 16.2686 29.7657 16.322 29.7108C16.328 29.7038 16.338 29.7028 16.344 29.6968L19.357 26.3708L23.754 29.7758C24.021 29.9848 24.35 30.0978 24.689 30.0978C25.423 30.0978 26.056 29.5838 26.207 28.8668L29.469 12.8488C29.5244 12.5769 29.5048 12.295 29.4126 12.0333C29.3203 11.7716 29.1587 11.5399 28.945 11.3628V11.3638ZM16.588 23.8938L15.881 27.3308L14.406 22.4528L21.721 18.6428L16.724 23.6408C16.6548 23.71 16.6075 23.7979 16.588 23.8938ZM25.227 28.6658C25.2082 28.7565 25.1665 28.8408 25.1057 28.9107C25.0449 28.9806 24.9672 29.0336 24.88 29.0648C24.7949 29.0975 24.7028 29.1076 24.6127 29.0939C24.5226 29.0802 24.4376 29.0433 24.366 28.9868L19.603 25.2978C19.5035 25.2209 19.3786 25.1844 19.2533 25.1956C19.128 25.2067 19.0115 25.2646 18.927 25.3578L16.83 27.6688L17.536 24.2418L24.725 17.0518C24.8092 16.9673 24.8604 16.8556 24.8695 16.7366C24.8785 16.6177 24.8447 16.4995 24.7742 16.4033C24.7037 16.3071 24.6012 16.2393 24.4851 16.212C24.3689 16.1848 24.2469 16.2 24.141 16.2548L13.778 21.6528L9.86102 20.2908C9.75717 20.2565 9.66659 20.1907 9.60188 20.1025C9.53718 20.0143 9.50158 19.9082 9.50002 19.7988C9.49504 19.6885 9.52452 19.5793 9.58437 19.4865C9.64422 19.3937 9.73147 19.3218 9.83402 19.2808L27.748 12.0478C27.8398 12.0088 27.9407 11.9962 28.0393 12.0114C28.1378 12.0266 28.2302 12.069 28.306 12.1338C28.3814 12.1948 28.4383 12.2755 28.4705 12.367C28.5026 12.4585 28.5087 12.5571 28.488 12.6518L25.227 28.6668V28.6658Z" fill="white"/>
<defs>
<clipPath id="clip0_10_98">
<rect width="40.7186" height="40.7186" fill="white"/>
</clipPath>
</defs>
</svg>
